<?xml version="1.0" standalone="no"?>
<!DOCTYPE svg PUBLIC "-//W3C//DTD SVG 20010904//EN"
 "http://www.w3.org/TR/2001/REC-SVG-20010904/DTD/svg10.dtd">
<svg version="1.0" xmlns="http://www.w3.org/2000/svg"
 width="1402.000000pt" height="1402.000000pt" viewBox="0 0 1402.000000 1402.000000"
 preserveAspectRatio="xMidYMid meet">
<metadata>
Created by potrace 1.11, written by Peter Selinger 2001-2013
</metadata>
<g transform="translate(0.000000,1402.000000) scale(0.100000,-0.100000)"
fill="#000000" stroke="none">
<path d="M0 7010 l0 -6970 6994 0 c6493 0 6995 1 7007 17 20 23 26 2111 7
2118 -7 2 -76 20 -153 41 -77 20 -148 43 -157 52 -26 22 -25 98 1 112 11 5 86
10 170 10 l151 0 0 5756 0 5756 -22 39 -22 39 -6988 0 -6988 0 0 -6970z m8170
4200 c358 -15 610 -55 850 -136 252 -85 431 -187 584 -334 235 -225 345 -462
413 -890 16 -104 18 -190 18 -890 0 -705 -2 -785 -18 -885 -68 -404 -170 -635
-376 -848 -84 -87 -1178 -1001 -1299 -1085 -43 -30 -131 -80 -197 -112 -272
-134 -517 -191 -965 -228 l-85 -7 -5 -270 c-5 -266 -5 -271 -31 -325 -15 -30
-40 -69 -55 -87 -16 -17 -284 -243 -596 -502 -546 -453 -570 -471 -636 -491
-66 -20 -85 -21 -827 -18 l-760 3 -55 22 c-100 41 -157 122 -180 253 -8 47
-10 856 -8 2860 l3 2795 24 58 c12 32 37 75 54 94 65 73 1131 966 1183 989 27
13 81 28 120 33 94 12 2562 13 2844 1z"/>
<path d="M5267 11114 c-29 -9 -63 -30 -87 -54 -76 -76 -70 181 -70 -2945 0
-2481 2 -2807 15 -2853 28 -94 90 -143 206 -162 86 -13 1372 -13 1458 0 120
20 188 79 210 181 7 33 11 298 11 779 l0 730 608 0 c643 1 796 8 1042 50 535
91 844 281 1066 656 123 207 200 468 224 750 13 154 13 1274 0 1428 -19 230
-79 462 -164 640 -109 227 -295 440 -476 547 -237 139 -548 224 -955 259 -76
6 -661 10 -1580 9 -1256 0 -1467 -2 -1508 -15z m2772 -744 c426 -26 716 -147
879 -368 170 -230 208 -453 199 -1175 -5 -408 -12 -505 -52 -661 -95 -372
-364 -571 -870 -647 -56 -8 -373 -13 -1072 -16 l-993 -4 0 -825 0 -824 -40 0
-40 0 0 2265 0 2265 913 0 c501 0 986 -5 1076 -10z"/>
<path d="M6130 8935 l0 -1355 843 0 c932 0 1161 8 1337 44 335 69 542 221 644
472 14 33 35 112 48 175 22 111 23 129 23 659 0 531 -1 548 -23 660 -28 139
-67 236 -131 327 -126 180 -316 290 -592 345 -113 22 -121 22 -1131 26 l-1018
3 0 -1356z m1788 606 c109 -34 152 -80 197 -215 25 -73 25 -80 25 -394 0 -291
-2 -326 -20 -383 -31 -99 -73 -164 -126 -195 -85 -50 -124 -54 -576 -54 l-418
0 0 630 0 630 429 0 c391 0 435 -2 489 -19z"/>
</g>
</svg>
